<mxfile host="app.diagrams.net" modified="2023-04-19T10:58:06.259Z" agent="Mozilla/5.0 (Windows NT 10.0; Win64; x64) AppleWebKit/537.36 (KHTML, like Gecko) Chrome/112.0.0.0 Safari/537.36" etag="dUVO6zrkWkfYTou48WPN" version="21.1.9" type="github">
  <diagram id="R2lEEEUBdFMjLlhIrx00" name="Page-1">
    <mxGraphModel dx="2140" dy="1687" grid="1" gridSize="10" guides="1" tooltips="1" connect="1" arrows="1" fold="1" page="1" pageScale="1" pageWidth="850" pageHeight="1100" math="0" shadow="0" extFonts="Permanent Marker^https://fonts.googleapis.com/css?family=Permanent+Marker">
      <root>
        <mxCell id="0" />
        <mxCell id="1" parent="0" />
        <mxCell id="xwGyqiBsa3P__e-ReU4B-61" value="" style="html=1;jettySize=18;whiteSpace=wrap;fontSize=13;strokeColor=#3a414a;strokeOpacity=100;strokeWidth=0.8;rounded=1;arcSize=12;edgeStyle=orthogonalEdgeStyle;startArrow=none;endArrow=none;exitX=0.5;exitY=1.008;exitPerimeter=0;entryX=0.732;entryY=-0.008;entryPerimeter=0;lucidId=eeUHVKAVvXch;" parent="1" source="xwGyqiBsa3P__e-ReU4B-114" target="xwGyqiBsa3P__e-ReU4B-109" edge="1">
          <mxGeometry width="100" height="100" relative="1" as="geometry">
            <Array as="points" />
          </mxGeometry>
        </mxCell>
        <mxCell id="xwGyqiBsa3P__e-ReU4B-63" value="name" style="html=1;overflow=block;blockSpacing=1;whiteSpace=wrap;ellipse;fontSize=16.7;fontFamily=Cousine;fontColor=#3a414a;spacing=3.8;strokeColor=#3a414a;strokeOpacity=100;fillOpacity=100;rounded=1;absoluteArcSize=1;arcSize=9;fillColor=#c3f7c8;strokeWidth=0.8;lucidId=LPOH_tGrGMsU;" parent="1" vertex="1">
          <mxGeometry x="-515" y="378" width="120" height="60" as="geometry" />
        </mxCell>
        <mxCell id="xwGyqiBsa3P__e-ReU4B-64" value="CustID" style="html=1;overflow=block;blockSpacing=1;whiteSpace=wrap;ellipse;fontSize=16.7;fontFamily=Cousine;fontColor=#3a414a;spacing=3.8;strokeColor=#979ea8;strokeOpacity=100;fillOpacity=100;rounded=1;absoluteArcSize=1;arcSize=9;fillColor=#c3f7c8;strokeWidth=0.8;lucidId=8POHH9~_UVQ9;" parent="1" vertex="1">
          <mxGeometry x="-545" y="303" width="90" height="60" as="geometry" />
        </mxCell>
        <mxCell id="xwGyqiBsa3P__e-ReU4B-65" value="address" style="html=1;overflow=block;blockSpacing=1;whiteSpace=wrap;ellipse;fontSize=16.7;fontFamily=Cousine;fontColor=#3a414a;spacing=3.8;strokeColor=#6f7681;strokeOpacity=100;fillOpacity=100;rounded=1;absoluteArcSize=1;arcSize=9;fillColor=#c3f7c8;strokeWidth=0.8;lucidId=sQOHMfVJUatZ;" parent="1" vertex="1">
          <mxGeometry x="-530" y="228" width="105" height="60" as="geometry" />
        </mxCell>
        <mxCell id="xwGyqiBsa3P__e-ReU4B-66" value="phone" style="html=1;overflow=block;blockSpacing=1;whiteSpace=wrap;ellipse;fontSize=16.7;fontFamily=Cousine;fontColor=#3a414a;spacing=3.8;strokeColor=#3a414a;strokeOpacity=100;fillOpacity=100;rounded=1;absoluteArcSize=1;arcSize=9;fillColor=#c3f7c8;strokeWidth=0.8;lucidId=pROH1JubrnOE;" parent="1" vertex="1">
          <mxGeometry x="-410" y="198" width="105" height="60" as="geometry" />
        </mxCell>
        <mxCell id="xwGyqiBsa3P__e-ReU4B-67" value="city" style="html=1;overflow=block;blockSpacing=1;whiteSpace=wrap;ellipse;fontSize=16.7;fontFamily=Cousine;fontColor=#3a414a;spacing=3.8;strokeColor=#3a414a;strokeOpacity=100;fillOpacity=100;rounded=1;absoluteArcSize=1;arcSize=9;fillColor=#c3f7c8;strokeWidth=0.8;lucidId=oSOHFitj4gpD;" parent="1" vertex="1">
          <mxGeometry x="-369" y="393" width="75" height="60" as="geometry" />
        </mxCell>
        <mxCell id="xwGyqiBsa3P__e-ReU4B-68" value="" style="html=1;jettySize=18;whiteSpace=wrap;fontSize=13;strokeColor=#3a414a;strokeOpacity=100;strokeWidth=0.8;rounded=1;arcSize=12;edgeStyle=orthogonalEdgeStyle;startArrow=none;endArrow=none;exitX=0.5;exitY=1.006;exitPerimeter=0;entryX=0.438;entryY=-0.008;entryPerimeter=0;lucidId=6TOH6t5iKAiM;" parent="1" source="xwGyqiBsa3P__e-ReU4B-66" target="xwGyqiBsa3P__e-ReU4B-62" edge="1">
          <mxGeometry width="100" height="100" relative="1" as="geometry">
            <Array as="points" />
          </mxGeometry>
        </mxCell>
        <mxCell id="xwGyqiBsa3P__e-ReU4B-69" value="" style="html=1;jettySize=18;whiteSpace=wrap;fontSize=13;strokeColor=#3a414a;strokeOpacity=100;strokeWidth=0.8;rounded=1;arcSize=12;edgeStyle=orthogonalEdgeStyle;startArrow=none;endArrow=none;exitX=1.004;exitY=0.5;exitPerimeter=0;entryX=0.024;entryY=-0.002;entryPerimeter=0;lucidId=lUOH3nIlO~~Z;" parent="1" source="xwGyqiBsa3P__e-ReU4B-65" target="xwGyqiBsa3P__e-ReU4B-62" edge="1">
          <mxGeometry width="100" height="100" relative="1" as="geometry">
            <Array as="points" />
          </mxGeometry>
        </mxCell>
        <mxCell id="xwGyqiBsa3P__e-ReU4B-70" value="" style="html=1;jettySize=18;whiteSpace=wrap;fontSize=13;strokeColor=#3a414a;strokeOpacity=100;strokeWidth=0.8;rounded=1;arcSize=12;edgeStyle=orthogonalEdgeStyle;startArrow=none;endArrow=none;exitX=1.004;exitY=0.5;exitPerimeter=0;entryX=-0.003;entryY=0.667;entryPerimeter=0;lucidId=xUOHKLBNViQ1;" parent="1" source="xwGyqiBsa3P__e-ReU4B-64" target="xwGyqiBsa3P__e-ReU4B-62" edge="1">
          <mxGeometry width="100" height="100" relative="1" as="geometry">
            <Array as="points" />
          </mxGeometry>
        </mxCell>
        <mxCell id="xwGyqiBsa3P__e-ReU4B-71" value="" style="html=1;jettySize=18;whiteSpace=wrap;fontSize=13;strokeColor=#3a414a;strokeOpacity=100;strokeWidth=0.8;rounded=1;arcSize=12;edgeStyle=orthogonalEdgeStyle;startArrow=none;endArrow=none;exitX=0.857;exitY=0.143;exitPerimeter=0;entryX=0.005;entryY=0.964;entryPerimeter=0;lucidId=KUOHvhjkZibR;" parent="1" source="xwGyqiBsa3P__e-ReU4B-63" target="xwGyqiBsa3P__e-ReU4B-62" edge="1">
          <mxGeometry width="100" height="100" relative="1" as="geometry">
            <Array as="points">
              <mxPoint x="-409" y="387" />
              <mxPoint x="-409" y="360" />
              <mxPoint x="-408" y="346" />
            </Array>
          </mxGeometry>
        </mxCell>
        <mxCell id="xwGyqiBsa3P__e-ReU4B-72" value="" style="html=1;jettySize=18;whiteSpace=wrap;fontSize=13;strokeColor=#3a414a;strokeOpacity=100;strokeWidth=0.8;rounded=1;arcSize=12;edgeStyle=orthogonalEdgeStyle;startArrow=none;endArrow=none;exitX=0.249;exitY=0.062;exitPerimeter=0;entryX=0.5;entryY=1.008;entryPerimeter=0;lucidId=SUOHapSBSo7-;" parent="1" source="xwGyqiBsa3P__e-ReU4B-67" target="xwGyqiBsa3P__e-ReU4B-62" edge="1">
          <mxGeometry width="100" height="100" relative="1" as="geometry">
            <Array as="points" />
          </mxGeometry>
        </mxCell>
        <mxCell id="xwGyqiBsa3P__e-ReU4B-73" value="make" style="html=1;overflow=block;blockSpacing=1;whiteSpace=wrap;rhombus;fontSize=16.7;fontFamily=Cousine;fontColor=#3a414a;spacing=3.8;strokeColor=#3a414a;strokeOpacity=100;fillOpacity=100;rounded=1;absoluteArcSize=1;arcSize=9;fillColor=#fff7a1;strokeWidth=0.8;lucidId=OWOH4vt7Eyao;" parent="1" vertex="1">
          <mxGeometry x="-215" y="280" width="120" height="90" as="geometry" />
        </mxCell>
        <mxCell id="xwGyqiBsa3P__e-ReU4B-75" value="Order" style="html=1;overflow=block;blockSpacing=1;whiteSpace=wrap;fontSize=16.7;fontFamily=Cousine;fontColor=#3a414a;spacing=9;strokeColor=#3a414a;strokeOpacity=100;fillOpacity=100;rounded=1;absoluteArcSize=1;arcSize=9;fillColor=#fff7a1;strokeWidth=0.8;lucidId=2XOHCRKvY~rn;" parent="1" vertex="1">
          <mxGeometry x="-5" y="295" width="120" height="53" as="geometry" />
        </mxCell>
        <mxCell id="xwGyqiBsa3P__e-ReU4B-77" value="date" style="html=1;overflow=block;blockSpacing=1;whiteSpace=wrap;ellipse;fontSize=16.7;fontFamily=Cousine;fontColor=#3a414a;spacing=3.8;strokeColor=#6f7681;strokeOpacity=100;fillOpacity=100;rounded=1;absoluteArcSize=1;arcSize=9;fillColor=#C3F7C8;strokeWidth=0.8;lucidId=t3OHWbO7njnT;" parent="1" vertex="1">
          <mxGeometry x="10" y="198" width="75" height="60" as="geometry" />
        </mxCell>
        <mxCell id="xwGyqiBsa3P__e-ReU4B-78" value="itemname" style="html=1;overflow=block;blockSpacing=1;whiteSpace=wrap;ellipse;fontSize=16.7;fontFamily=Cousine;fontColor=#3a414a;spacing=3.8;strokeColor=#979ea8;strokeOpacity=100;fillOpacity=100;rounded=1;absoluteArcSize=1;arcSize=9;fillColor=#c3f7c8;strokeWidth=0.8;lucidId=A3OH_NKoXDpe;" parent="1" vertex="1">
          <mxGeometry x="130" y="198" width="105" height="60" as="geometry" />
        </mxCell>
        <mxCell id="xwGyqiBsa3P__e-ReU4B-79" value="OrderId" style="html=1;overflow=block;blockSpacing=1;whiteSpace=wrap;ellipse;fontSize=16.7;fontFamily=Cousine;fontColor=#3a414a;spacing=3.8;strokeColor=#979ea8;strokeOpacity=100;fillOpacity=100;rounded=1;absoluteArcSize=1;arcSize=9;fillColor=#c3f7c8;strokeWidth=0.8;lucidId=E3OHSsGkuU5q;" parent="1" vertex="1">
          <mxGeometry x="-20" y="393" width="105" height="60" as="geometry" />
        </mxCell>
        <mxCell id="xwGyqiBsa3P__e-ReU4B-80" value="qty" style="html=1;overflow=block;blockSpacing=1;whiteSpace=wrap;ellipse;fontSize=16.7;fontFamily=Cousine;fontColor=#3a414a;spacing=3.8;strokeColor=#6f7681;strokeOpacity=100;fillOpacity=100;rounded=1;absoluteArcSize=1;arcSize=9;fillColor=#c3f7c8;strokeWidth=0.8;lucidId=N3OHX4.VS685;" parent="1" vertex="1">
          <mxGeometry x="117" y="410" width="60" height="60" as="geometry" />
        </mxCell>
        <mxCell id="xwGyqiBsa3P__e-ReU4B-81" value="" style="html=1;jettySize=18;whiteSpace=wrap;fontSize=13;strokeColor=#3a414a;strokeOpacity=100;strokeWidth=0.8;rounded=1;arcSize=12;edgeStyle=orthogonalEdgeStyle;startArrow=none;endArrow=none;exitX=-0.004;exitY=0.5;exitPerimeter=0;entryX=1.001;entryY=0.059;entryPerimeter=0;lucidId=S5OHZKvPSN4U;" parent="1" source="xwGyqiBsa3P__e-ReU4B-78" target="xwGyqiBsa3P__e-ReU4B-75" edge="1">
          <mxGeometry width="100" height="100" relative="1" as="geometry">
            <Array as="points">
              <mxPoint x="115" y="228" />
            </Array>
          </mxGeometry>
        </mxCell>
        <mxCell id="xwGyqiBsa3P__e-ReU4B-82" value="" style="html=1;jettySize=18;whiteSpace=wrap;fontSize=13;strokeColor=#3a414a;strokeOpacity=100;strokeWidth=0.8;rounded=1;arcSize=12;edgeStyle=orthogonalEdgeStyle;startArrow=none;endArrow=none;exitX=-0.006;exitY=0.5;exitPerimeter=0;entryX=0.841;entryY=1.007;entryPerimeter=0;lucidId=d8OHzYRf7jSw;" parent="1" source="xwGyqiBsa3P__e-ReU4B-80" target="xwGyqiBsa3P__e-ReU4B-75" edge="1">
          <mxGeometry width="100" height="100" relative="1" as="geometry">
            <Array as="points" />
          </mxGeometry>
        </mxCell>
        <mxCell id="xwGyqiBsa3P__e-ReU4B-83" value="" style="html=1;jettySize=18;whiteSpace=wrap;fontSize=13;strokeColor=#3a414a;strokeOpacity=100;strokeWidth=0.8;rounded=1;arcSize=12;edgeStyle=orthogonalEdgeStyle;startArrow=none;endArrow=none;exitX=0.5;exitY=-0.006;exitPerimeter=0;entryX=0.313;entryY=1.007;entryPerimeter=0;lucidId=p8OHlKa2xzPo;" parent="1" source="xwGyqiBsa3P__e-ReU4B-79" target="xwGyqiBsa3P__e-ReU4B-75" edge="1">
          <mxGeometry width="100" height="100" relative="1" as="geometry">
            <Array as="points" />
          </mxGeometry>
        </mxCell>
        <mxCell id="xwGyqiBsa3P__e-ReU4B-84" value="" style="html=1;jettySize=18;whiteSpace=wrap;fontSize=13;strokeColor=#3a414a;strokeOpacity=100;strokeWidth=0.8;rounded=1;arcSize=12;edgeStyle=orthogonalEdgeStyle;startArrow=none;endArrow=none;exitX=0.5;exitY=1.006;exitPerimeter=0;entryX=0.438;entryY=-0.007;entryPerimeter=0;lucidId=u8OHPPNrxvWm;" parent="1" source="xwGyqiBsa3P__e-ReU4B-77" target="xwGyqiBsa3P__e-ReU4B-75" edge="1">
          <mxGeometry width="100" height="100" relative="1" as="geometry">
            <Array as="points" />
          </mxGeometry>
        </mxCell>
        <mxCell id="xwGyqiBsa3P__e-ReU4B-85" value="cachier " style="html=1;overflow=block;blockSpacing=1;whiteSpace=wrap;fontSize=21;fontColor=default;spacing=9;strokeColor=#3a414a;strokeOpacity=100;fillOpacity=100;rounded=1;absoluteArcSize=1;arcSize=9;fillColor=#fff7a1;strokeWidth=0.8;lucidId=rbQH13wUtEh0;" parent="1" vertex="1">
          <mxGeometry x="460" y="295" width="120" height="53" as="geometry" />
        </mxCell>
        <mxCell id="xwGyqiBsa3P__e-ReU4B-86" value="Take by" style="html=1;overflow=block;blockSpacing=1;whiteSpace=wrap;rhombus;fontSize=16.7;fontFamily=Cousine;fontColor=#3a414a;spacing=3.8;strokeColor=#3a414a;strokeOpacity=100;fillOpacity=100;rounded=1;absoluteArcSize=1;arcSize=9;fillColor=#fff7a1;strokeWidth=0.8;lucidId=ldQHIkmiFF54;" parent="1" vertex="1">
          <mxGeometry x="235" y="288" width="135" height="68" as="geometry" />
        </mxCell>
        <mxCell id="xwGyqiBsa3P__e-ReU4B-89" value="CashID" style="html=1;overflow=block;blockSpacing=1;whiteSpace=wrap;ellipse;fontSize=16.7;fontFamily=Cousine;fontColor=#3a414a;spacing=3.8;strokeColor=#6f7681;strokeOpacity=100;fillOpacity=100;rounded=1;absoluteArcSize=1;arcSize=9;fillColor=#c3f7c8;strokeWidth=0.8;lucidId=wgQHvv.o6Pl2;" parent="1" vertex="1">
          <mxGeometry x="440" y="168" width="105" height="60" as="geometry" />
        </mxCell>
        <mxCell id="xwGyqiBsa3P__e-ReU4B-90" value="cashName" style="html=1;overflow=block;blockSpacing=1;whiteSpace=wrap;ellipse;fontSize=16.7;fontFamily=Cousine;fontColor=#3a414a;spacing=3.8;strokeColor=#6f7681;strokeOpacity=100;fillOpacity=100;rounded=1;absoluteArcSize=1;arcSize=9;fillColor=#c3f7c8;strokeWidth=0.8;lucidId=NgQHiY7wsgvM;" parent="1" vertex="1">
          <mxGeometry x="550" y="198" width="110" height="60" as="geometry" />
        </mxCell>
        <mxCell id="xwGyqiBsa3P__e-ReU4B-91" value="" style="html=1;jettySize=18;whiteSpace=wrap;fontSize=13;strokeColor=#3a414a;strokeOpacity=100;strokeWidth=0.8;rounded=1;arcSize=12;edgeStyle=orthogonalEdgeStyle;startArrow=none;endArrow=none;exitX=0.408;exitY=0.997;exitPerimeter=0;entryX=0.705;entryY=-0.007;entryPerimeter=0;lucidId=RUTHjm87CeAM;" parent="1" source="xwGyqiBsa3P__e-ReU4B-90" target="xwGyqiBsa3P__e-ReU4B-85" edge="1">
          <mxGeometry width="100" height="100" relative="1" as="geometry">
            <Array as="points" />
          </mxGeometry>
        </mxCell>
        <mxCell id="xwGyqiBsa3P__e-ReU4B-92" value="" style="html=1;jettySize=18;whiteSpace=wrap;fontSize=13;strokeColor=#3a414a;strokeOpacity=100;strokeWidth=0.8;rounded=1;arcSize=12;edgeStyle=orthogonalEdgeStyle;startArrow=none;endArrow=none;exitX=0.012;exitY=0.014;exitPerimeter=0;entryX=0.585;entryY=0.998;entryPerimeter=0;lucidId=MWTHa2.moJ15;" parent="1" source="xwGyqiBsa3P__e-ReU4B-85" target="xwGyqiBsa3P__e-ReU4B-89" edge="1">
          <mxGeometry width="100" height="100" relative="1" as="geometry">
            <Array as="points" />
          </mxGeometry>
        </mxCell>
        <mxCell id="xwGyqiBsa3P__e-ReU4B-93" value="aceptOrder" style="html=1;overflow=block;blockSpacing=1;whiteSpace=wrap;ellipse;fontSize=16.7;fontFamily=Cousine;fontColor=#3a414a;spacing=3.8;strokeColor=#6f7681;strokeOpacity=100;fillOpacity=100;rounded=1;absoluteArcSize=1;arcSize=9;fillColor=#c3f7c8;strokeWidth=0.8;lucidId=QXTHaerB_sA0;" parent="1" vertex="1">
          <mxGeometry x="655" y="280" width="143" height="60" as="geometry" />
        </mxCell>
        <mxCell id="xwGyqiBsa3P__e-ReU4B-94" value="" style="html=1;jettySize=18;whiteSpace=wrap;fontSize=13;strokeColor=#3a414a;strokeOpacity=100;strokeWidth=0.8;rounded=1;arcSize=12;edgeStyle=orthogonalEdgeStyle;startArrow=none;endArrow=none;exitX=0.972;exitY=1.005;exitPerimeter=0;entryX=0.141;entryY=0.145;entryPerimeter=0;lucidId=jZTHaGPeHq1S;" parent="1" source="xwGyqiBsa3P__e-ReU4B-85" target="xwGyqiBsa3P__e-ReU4B-93" edge="1">
          <mxGeometry width="100" height="100" relative="1" as="geometry">
            <Array as="points" />
          </mxGeometry>
        </mxCell>
        <mxCell id="xwGyqiBsa3P__e-ReU4B-95" value="Staff" style="html=1;overflow=block;blockSpacing=1;whiteSpace=wrap;fontSize=16.7;fontFamily=Cousine;fontColor=#3a414a;spacing=9;strokeColor=#3a414a;strokeOpacity=100;fillOpacity=100;rounded=1;absoluteArcSize=1;arcSize=9;fillColor=#fff7a1;strokeWidth=0.8;lucidId=8ZTHRaIuEVUc;" parent="1" vertex="1">
          <mxGeometry x="445" y="558" width="150" height="51" as="geometry" />
        </mxCell>
        <mxCell id="xwGyqiBsa3P__e-ReU4B-96" value="Tell" style="html=1;overflow=block;blockSpacing=1;whiteSpace=wrap;rhombus;fontSize=16.7;fontFamily=Cousine;fontColor=#3a414a;spacing=3.8;strokeColor=#3a414a;strokeOpacity=100;fillOpacity=100;rounded=1;absoluteArcSize=1;arcSize=9;fillColor=#fff7a1;strokeWidth=0.8;lucidId=N3TH96UT-R42;" parent="1" vertex="1">
          <mxGeometry x="460" y="410" width="120" height="90" as="geometry" />
        </mxCell>
        <mxCell id="xwGyqiBsa3P__e-ReU4B-99" value="StaffId" style="html=1;overflow=block;blockSpacing=1;whiteSpace=wrap;ellipse;fontSize=16.7;fontFamily=Cousine;fontColor=#3a414a;spacing=3.8;strokeColor=#6f7681;strokeOpacity=100;fillOpacity=100;rounded=1;absoluteArcSize=1;arcSize=9;fillColor=#c3f7c8;strokeWidth=0.8;lucidId=q9THXQ8DX.yu;" parent="1" vertex="1">
          <mxGeometry x="265" y="588" width="105" height="68" as="geometry" />
        </mxCell>
        <mxCell id="xwGyqiBsa3P__e-ReU4B-100" value="Staffname" style="html=1;overflow=block;blockSpacing=1;whiteSpace=wrap;ellipse;fontSize=16.7;fontFamily=Cousine;fontColor=#3a414a;spacing=3.8;strokeColor=#6f7681;strokeOpacity=100;fillOpacity=100;rounded=1;absoluteArcSize=1;arcSize=9;fillColor=#c3f7c8;strokeWidth=0.8;lucidId=H9THobIDtsZg;" parent="1" vertex="1">
          <mxGeometry x="400" y="647" width="120" height="61" as="geometry" />
        </mxCell>
        <mxCell id="xwGyqiBsa3P__e-ReU4B-101" value="addreess" style="html=1;overflow=block;blockSpacing=1;whiteSpace=wrap;ellipse;fontSize=16.7;fontFamily=Cousine;fontColor=#3a414a;spacing=3.8;strokeColor=#6f7681;strokeOpacity=100;fillOpacity=100;rounded=1;absoluteArcSize=1;arcSize=9;fillColor=#c3f7c8;strokeWidth=0.8;lucidId=.9THeuPndlww;" parent="1" vertex="1">
          <mxGeometry x="550" y="649" width="120" height="60" as="geometry" />
        </mxCell>
        <mxCell id="xwGyqiBsa3P__e-ReU4B-102" value="fucntion" style="html=1;overflow=block;blockSpacing=1;whiteSpace=wrap;ellipse;fontSize=16.7;fontFamily=Cousine;fontColor=#3a414a;spacing=3.8;strokeColor=#6f7681;strokeOpacity=100;fillOpacity=100;rounded=1;absoluteArcSize=1;arcSize=9;fillColor=#c3f7c8;strokeWidth=0.8;lucidId=A-TH3dZwqAjb;" parent="1" vertex="1">
          <mxGeometry x="670" y="573" width="113" height="60" as="geometry" />
        </mxCell>
        <mxCell id="xwGyqiBsa3P__e-ReU4B-103" value="" style="html=1;jettySize=18;whiteSpace=wrap;fontSize=13;strokeColor=#3a414a;strokeOpacity=100;strokeWidth=0.8;rounded=1;arcSize=12;edgeStyle=orthogonalEdgeStyle;startArrow=none;endArrow=none;exitX=-0.002;exitY=0.683;exitPerimeter=0;entryX=0.773;entryY=0.076;entryPerimeter=0;lucidId=c_TH-wb~7Exo;" parent="1" source="xwGyqiBsa3P__e-ReU4B-95" target="xwGyqiBsa3P__e-ReU4B-99" edge="1">
          <mxGeometry width="100" height="100" relative="1" as="geometry">
            <Array as="points" />
          </mxGeometry>
        </mxCell>
        <mxCell id="xwGyqiBsa3P__e-ReU4B-104" value="" style="html=1;jettySize=18;whiteSpace=wrap;fontSize=13;strokeColor=#3a414a;strokeOpacity=100;strokeWidth=0.8;rounded=1;arcSize=12;edgeStyle=orthogonalEdgeStyle;startArrow=none;endArrow=none;exitX=0.058;exitY=1.007;exitPerimeter=0;entryX=0.447;entryY=-0.003;entryPerimeter=0;lucidId=j_THAaqYZQ7q;" parent="1" source="xwGyqiBsa3P__e-ReU4B-95" target="xwGyqiBsa3P__e-ReU4B-100" edge="1">
          <mxGeometry width="100" height="100" relative="1" as="geometry">
            <Array as="points" />
          </mxGeometry>
        </mxCell>
        <mxCell id="xwGyqiBsa3P__e-ReU4B-105" value="" style="html=1;jettySize=18;whiteSpace=wrap;fontSize=13;strokeColor=#3a414a;strokeOpacity=100;strokeWidth=0.8;rounded=1;arcSize=12;edgeStyle=orthogonalEdgeStyle;startArrow=none;endArrow=none;exitX=0.88;exitY=1.007;exitPerimeter=0;entryX=0.225;entryY=0.076;entryPerimeter=0;lucidId=t_THI0R_UoST;" parent="1" source="xwGyqiBsa3P__e-ReU4B-95" target="xwGyqiBsa3P__e-ReU4B-101" edge="1">
          <mxGeometry width="100" height="100" relative="1" as="geometry">
            <Array as="points" />
          </mxGeometry>
        </mxCell>
        <mxCell id="xwGyqiBsa3P__e-ReU4B-106" value="" style="html=1;jettySize=18;whiteSpace=wrap;fontSize=13;strokeColor=#3a414a;strokeOpacity=100;strokeWidth=0.8;rounded=1;arcSize=12;edgeStyle=orthogonalEdgeStyle;startArrow=none;endArrow=none;exitX=1.002;exitY=0.706;exitPerimeter=0;entryX=0.018;entryY=0.355;entryPerimeter=0;lucidId=x_THcseSCW~Q;" parent="1" source="xwGyqiBsa3P__e-ReU4B-95" target="xwGyqiBsa3P__e-ReU4B-102" edge="1">
          <mxGeometry width="100" height="100" relative="1" as="geometry">
            <Array as="points" />
          </mxGeometry>
        </mxCell>
        <mxCell id="xwGyqiBsa3P__e-ReU4B-109" value="Bill" style="html=1;overflow=block;blockSpacing=1;whiteSpace=wrap;fontSize=16.7;fontFamily=Cousine;fontColor=#3a414a;spacing=9;strokeColor=#3a414a;strokeOpacity=100;fillOpacity=100;rounded=1;absoluteArcSize=1;arcSize=9;fillColor=#fff7a1;strokeWidth=0.8;lucidId=V~TH8eFYNi4z;" parent="1" vertex="1">
          <mxGeometry x="-3" y="-57" width="120" height="45" as="geometry" />
        </mxCell>
        <mxCell id="xwGyqiBsa3P__e-ReU4B-110" value="Pay to" style="html=1;overflow=block;blockSpacing=1;whiteSpace=wrap;rhombus;fontSize=16.7;fontFamily=Cousine;fontColor=#3a414a;spacing=3.8;strokeColor=#3a414a;strokeOpacity=100;fillOpacity=100;rounded=1;absoluteArcSize=1;arcSize=9;fillColor=#fff7a1;strokeWidth=0.8;lucidId=jcUHxZCGKuqz;" parent="1" vertex="1">
          <mxGeometry x="-352" y="-27" width="122" height="60" as="geometry" />
        </mxCell>
        <mxCell id="xwGyqiBsa3P__e-ReU4B-112" value="PayID" style="html=1;overflow=block;blockSpacing=1;whiteSpace=wrap;ellipse;fontSize=16.7;fontFamily=Cousine;fontColor=#3a414a;spacing=3.8;strokeColor=#6f7681;strokeOpacity=100;fillOpacity=100;rounded=1;absoluteArcSize=1;arcSize=9;fillColor=#c3f7c8;strokeWidth=0.8;lucidId=rdUHNZP1KzWL;" parent="1" vertex="1">
          <mxGeometry x="-80" y="-192" width="90" height="45" as="geometry" />
        </mxCell>
        <mxCell id="xwGyqiBsa3P__e-ReU4B-113" value="" style="html=1;jettySize=18;whiteSpace=wrap;fontSize=13;strokeColor=#3a414a;strokeOpacity=100;strokeWidth=0.8;rounded=1;arcSize=12;edgeStyle=orthogonalEdgeStyle;startArrow=none;endArrow=none;exitX=0.5;exitY=1.008;exitPerimeter=0;entryX=-0.003;entryY=0.17;entryPerimeter=0;lucidId=UdUHol_uEu6m;" parent="1" source="xwGyqiBsa3P__e-ReU4B-112" target="xwGyqiBsa3P__e-ReU4B-109" edge="1">
          <mxGeometry width="100" height="100" relative="1" as="geometry">
            <Array as="points" />
          </mxGeometry>
        </mxCell>
        <mxCell id="xwGyqiBsa3P__e-ReU4B-114" value="date" style="html=1;overflow=block;blockSpacing=1;whiteSpace=wrap;ellipse;fontSize=16.7;fontFamily=Cousine;fontColor=#3a414a;spacing=3.8;strokeColor=#6f7681;strokeOpacity=100;fillOpacity=100;rounded=1;absoluteArcSize=1;arcSize=9;fillColor=#c3f7c8;strokeWidth=0.8;lucidId=0dUHvmmssHNE;" parent="1" vertex="1">
          <mxGeometry x="40" y="-200" width="90" height="45" as="geometry" />
        </mxCell>
        <mxCell id="xwGyqiBsa3P__e-ReU4B-115" value="CashIn" style="ellipse;whiteSpace=wrap;html=1;fillColor=#C3F7C8;strokeColor=#82b366;fontFamily=Courier New;fontSize=17;" parent="1" vertex="1">
          <mxGeometry x="150" y="-200" width="100" height="62" as="geometry" />
        </mxCell>
        <mxCell id="xwGyqiBsa3P__e-ReU4B-116" value="" style="endArrow=none;html=1;rounded=0;entryX=0;entryY=1;entryDx=0;entryDy=0;" parent="1" target="xwGyqiBsa3P__e-ReU4B-115" edge="1">
          <mxGeometry width="50" height="50" relative="1" as="geometry">
            <mxPoint x="110" y="-50" as="sourcePoint" />
            <mxPoint x="160" y="-100" as="targetPoint" />
          </mxGeometry>
        </mxCell>
        <mxCell id="xwGyqiBsa3P__e-ReU4B-117" value="&lt;font face=&quot;Courier New&quot;&gt;GetPaid&lt;/font&gt;" style="rhombus;whiteSpace=wrap;html=1;fillColor=#ffff88;strokeColor=#36393d;" parent="1" vertex="1">
          <mxGeometry x="257.5" y="-74.5" width="122.5" height="74.5" as="geometry" />
        </mxCell>
        <mxCell id="xwGyqiBsa3P__e-ReU4B-119" value="CashOut" style="ellipse;whiteSpace=wrap;html=1;fillColor=#C3F7C8;strokeColor=#82b366;fontFamily=Courier New;fontSize=17;" parent="1" vertex="1">
          <mxGeometry x="-95" y="33" width="100" height="62" as="geometry" />
        </mxCell>
        <mxCell id="xwGyqiBsa3P__e-ReU4B-120" value="" style="endArrow=none;html=1;rounded=0;exitX=0.614;exitY=0.007;exitDx=0;exitDy=0;exitPerimeter=0;" parent="1" source="xwGyqiBsa3P__e-ReU4B-119" edge="1">
          <mxGeometry width="50" height="50" relative="1" as="geometry">
            <mxPoint x="-50" y="40" as="sourcePoint" />
            <mxPoint y="-10" as="targetPoint" />
          </mxGeometry>
        </mxCell>
        <mxCell id="xwGyqiBsa3P__e-ReU4B-62" value="Customer" style="html=1;overflow=block;blockSpacing=1;whiteSpace=wrap;fontSize=16.7;fontFamily=Cousine;fontColor=#3a414a;spacing=9;strokeColor=#3a414a;strokeOpacity=100;fillOpacity=100;rounded=1;absoluteArcSize=1;arcSize=9;fillColor=#fff7a1;strokeWidth=0.8;lucidId=XOOHbNm-dTIQ;" parent="1" vertex="1">
          <mxGeometry x="-394" y="311" width="100" height="45" as="geometry" />
        </mxCell>
        <mxCell id="xwGyqiBsa3P__e-ReU4B-129" value="" style="edgeStyle=entityRelationEdgeStyle;fontSize=12;html=1;endArrow=ERmandOne;startArrow=ERmandOne;rounded=0;" parent="1" edge="1">
          <mxGeometry width="100" height="100" relative="1" as="geometry">
            <mxPoint x="-294" y="320" as="sourcePoint" />
            <mxPoint x="-320" y="20" as="targetPoint" />
          </mxGeometry>
        </mxCell>
        <mxCell id="xwGyqiBsa3P__e-ReU4B-132" value="" style="edgeStyle=entityRelationEdgeStyle;fontSize=12;html=1;endArrow=ERoneToMany;startArrow=ERzeroToOne;rounded=0;exitX=0;exitY=0.5;exitDx=0;exitDy=0;entryX=1;entryY=0.5;entryDx=0;entryDy=0;" parent="1" source="xwGyqiBsa3P__e-ReU4B-109" target="xwGyqiBsa3P__e-ReU4B-110" edge="1">
          <mxGeometry width="100" height="100" relative="1" as="geometry">
            <mxPoint x="-190" y="10" as="sourcePoint" />
            <mxPoint x="-90" y="-90" as="targetPoint" />
          </mxGeometry>
        </mxCell>
        <mxCell id="xwGyqiBsa3P__e-ReU4B-133" value="" style="edgeStyle=entityRelationEdgeStyle;fontSize=12;html=1;endArrow=ERoneToMany;startArrow=ERzeroToOne;rounded=0;exitX=0;exitY=0.5;exitDx=0;exitDy=0;entryX=0;entryY=0.5;entryDx=0;entryDy=0;" parent="1" target="xwGyqiBsa3P__e-ReU4B-117" edge="1">
          <mxGeometry width="100" height="100" relative="1" as="geometry">
            <mxPoint x="117" y="-38" as="sourcePoint" />
            <mxPoint x="-110" as="targetPoint" />
          </mxGeometry>
        </mxCell>
        <mxCell id="xwGyqiBsa3P__e-ReU4B-137" value="" style="edgeStyle=entityRelationEdgeStyle;fontSize=12;html=1;endArrow=ERoneToMany;startArrow=ERzeroToOne;rounded=0;exitX=0;exitY=1;exitDx=0;exitDy=0;entryX=1;entryY=0.75;entryDx=0;entryDy=0;" parent="1" source="xwGyqiBsa3P__e-ReU4B-73" target="xwGyqiBsa3P__e-ReU4B-62" edge="1">
          <mxGeometry width="100" height="100" relative="1" as="geometry">
            <mxPoint x="-215" y="393" as="sourcePoint" />
            <mxPoint x="-216.88232421875" y="550" as="targetPoint" />
          </mxGeometry>
        </mxCell>
        <mxCell id="xwGyqiBsa3P__e-ReU4B-140" value="" style="edgeStyle=entityRelationEdgeStyle;fontSize=12;html=1;endArrow=ERoneToMany;startArrow=ERzeroToMany;rounded=0;exitX=1;exitY=0.5;exitDx=0;exitDy=0;" parent="1" source="xwGyqiBsa3P__e-ReU4B-73" edge="1">
          <mxGeometry width="100" height="100" relative="1" as="geometry">
            <mxPoint x="-100" y="420" as="sourcePoint" />
            <mxPoint x="-10" y="320" as="targetPoint" />
          </mxGeometry>
        </mxCell>
        <mxCell id="xwGyqiBsa3P__e-ReU4B-142" value="" style="edgeStyle=entityRelationEdgeStyle;fontSize=12;html=1;endArrow=ERoneToMany;startArrow=ERzeroToMany;rounded=0;exitX=1;exitY=0.5;exitDx=0;exitDy=0;entryX=0;entryY=0.5;entryDx=0;entryDy=0;" parent="1" target="xwGyqiBsa3P__e-ReU4B-86" edge="1">
          <mxGeometry width="100" height="100" relative="1" as="geometry">
            <mxPoint x="115" y="316" as="sourcePoint" />
            <mxPoint x="200" y="311" as="targetPoint" />
          </mxGeometry>
        </mxCell>
        <mxCell id="xwGyqiBsa3P__e-ReU4B-144" value="" style="edgeStyle=entityRelationEdgeStyle;fontSize=12;html=1;endArrow=ERmany;startArrow=ERmany;rounded=0;exitX=1;exitY=0.5;exitDx=0;exitDy=0;" parent="1" source="xwGyqiBsa3P__e-ReU4B-86" edge="1">
          <mxGeometry width="100" height="100" relative="1" as="geometry">
            <mxPoint x="360" y="420" as="sourcePoint" />
            <mxPoint x="460" y="320" as="targetPoint" />
          </mxGeometry>
        </mxCell>
        <mxCell id="xwGyqiBsa3P__e-ReU4B-147" value="" style="edgeStyle=entityRelationEdgeStyle;fontSize=12;html=1;endArrow=ERoneToMany;startArrow=ERzeroToMany;rounded=0;entryX=1;entryY=0.75;entryDx=0;entryDy=0;" parent="1" source="xwGyqiBsa3P__e-ReU4B-96" target="xwGyqiBsa3P__e-ReU4B-85" edge="1">
          <mxGeometry width="100" height="100" relative="1" as="geometry">
            <mxPoint x="400" y="460" as="sourcePoint" />
            <mxPoint x="520" y="340" as="targetPoint" />
          </mxGeometry>
        </mxCell>
        <mxCell id="xwGyqiBsa3P__e-ReU4B-149" value="" style="edgeStyle=entityRelationEdgeStyle;fontSize=12;html=1;endArrow=ERoneToMany;startArrow=ERzeroToMany;rounded=0;exitX=1;exitY=1;exitDx=0;exitDy=0;" parent="1" source="xwGyqiBsa3P__e-ReU4B-96" edge="1">
          <mxGeometry width="100" height="100" relative="1" as="geometry">
            <mxPoint x="390" y="490" as="sourcePoint" />
            <mxPoint x="440" y="580" as="targetPoint" />
          </mxGeometry>
        </mxCell>
        <mxCell id="xwGyqiBsa3P__e-ReU4B-151" value="" style="edgeStyle=entityRelationEdgeStyle;fontSize=12;html=1;endArrow=ERmany;startArrow=ERmany;rounded=0;exitX=0;exitY=0.25;exitDx=0;exitDy=0;" parent="1" source="xwGyqiBsa3P__e-ReU4B-85" target="xwGyqiBsa3P__e-ReU4B-117" edge="1">
          <mxGeometry width="100" height="100" relative="1" as="geometry">
            <mxPoint x="510" y="290" as="sourcePoint" />
            <mxPoint x="460" y="140" as="targetPoint" />
          </mxGeometry>
        </mxCell>
      </root>
    </mxGraphModel>
  </diagram>
</mxfile>
